# xmcd
#
# Track frame offsets:
#	150
#	20400
#	36137
#	55972
#	71270
#	83145
#	97020
#	116517
#	136345
#	152425
#	171025
#	190482
#	213050
#	229307
#	242392
#	259965
#
# Disc length: 3554 seconds
#
# Revision: 1
# Processed by: cddbd v1.5.1PL0 Copyright (c) Steve Scherf et al.
# Submitted via: CDex 1.50Beta5
#
DISCID=d00de010
DTITLE=ワム! - リゾッチャ
DYEAR=1996
DGENRE=Rock
TTITLE0=ワム!/クラブ・トロピカーナ
TTITLE1=グロリア・エステファン/1-2-3
TTITLE2=アスワド/ハートビート
TTITLE3=ボブ・マーリー/ワン・ラブ
TTITLE4=スライ&ザ・ファミリー・ストーン/ホット・ファン・イン・ザ・サマータイム
TTITLE5=ジプシー・キングス/ベン,ベン,マリア
TTITLE6=サンタナ/ぼくのリズムを聞いとくれ
TTITLE7=アース・ウインド&ファイアー/ラブズ・ホリデイ
TTITLE8=ジェリー・デボー/バハマ・リズム
TTITLE9=クレモンティーヌ/サントロペで
TTITLE10=リンダ・ルイス/ホワッツ・オール・ジス・アバウト
TTITLE11=バーシア/サード・タイム・ラッキー
TTITLE12=ジャネット・ケイ/ラビン・ユー
TTITLE13=ナレオ/ラム・アンド・コカコーラ
TTITLE14=SANDII/シーサイド・バウンド
TTITLE15=ミスター・タブー/リゾッチャ!
EXTD=
EXTT0=
EXTT1=
EXTT2=
EXTT3=
EXTT4=
EXTT5=
EXTT6=
EXTT7=
EXTT8=
EXTT9=
EXTT10=
EXTT11=
EXTT12=
EXTT13=
EXTT14=
EXTT15=
PLAYORDER=
